<svg width="515" height="515" viewBox="0 0 515 515" fill="none" xmlns="http://www.w3.org/2000/svg" xmlns:xlink="http://www.w3.org/1999/xlink">
<g id="Repeat group 1_inner" data-figma-trr="r6u2.5-0f">
<path d="M247.362 68.8025C279.733 45.0766 307.445 44.4988 329.149 51.9025C350.818 59.2942 366.465 74.6299 374.768 82.6479L375.061 82.9316L374.814 83.2964L374.548 83.6926L374.547 83.6935L374.28 84.0877L373.942 84.588L373.535 84.2044L372.797 83.5125L372.797 83.5116C357.139 69.1907 316.087 61.5271 254.697 106.523C214.884 135.703 188.41 140.517 170.38 138.418C161.225 137.352 155.09 131.883 150.464 125.79C148.153 122.745 146.208 119.531 144.453 116.621C142.69 113.699 141.129 111.105 139.566 109.245L139.307 108.938L139.574 108.599L140.155 107.857L140.54 107.365L140.914 107.809L142.146 109.276L142.145 109.276C148.339 116.636 155.862 120.585 171.116 122.366C180.064 121.928 189.241 115.84 201.179 106.134C213.09 96.4497 227.694 83.218 247.362 68.8025Z" fill="url(#paint0_linear_0_1)"/>
<path d="M247.362 68.8025L247.066 68.3993L247.066 68.3993L247.362 68.8025ZM329.149 51.9025L329.311 51.4293L329.311 51.4293L329.149 51.9025ZM374.768 82.6479L375.116 82.2886L375.116 82.2883L374.768 82.6479ZM375.061 82.9316L375.475 83.2121L375.711 82.8643L375.409 82.5722L375.061 82.9316ZM374.814 83.2964L374.4 83.0159L374.399 83.0174L374.814 83.2964ZM374.548 83.6926L374.861 84.0826L374.92 84.0349L374.963 83.9716L374.548 83.6926ZM374.547 83.6935L374.234 83.3035L374.175 83.3509L374.132 83.4137L374.547 83.6935ZM374.28 84.0877L374.694 84.3681L374.695 84.3675L374.28 84.0877ZM373.942 84.588L373.599 84.9518L374.026 85.3548L374.356 84.8683L373.942 84.588ZM373.535 84.2044L373.878 83.8406L373.877 83.8398L373.535 84.2044ZM372.797 83.5125L372.3 83.458L372.273 83.7063L372.455 83.8772L372.797 83.5125ZM372.797 83.5116L373.294 83.566L373.322 83.3138L373.135 83.1426L372.797 83.5116ZM254.697 106.523L254.401 106.119V106.119L254.697 106.523ZM170.38 138.418L170.322 138.915L170.322 138.915L170.38 138.418ZM150.464 125.79L150.066 126.092L150.066 126.092L150.464 125.79ZM144.453 116.621L144.025 116.88V116.88L144.453 116.621ZM139.566 109.245L139.183 109.567L139.183 109.567L139.566 109.245ZM139.307 108.938L138.914 108.629L138.664 108.949L138.925 109.259L139.307 108.938ZM139.574 108.599L139.967 108.907L139.967 108.907L139.574 108.599ZM140.155 107.857L140.548 108.165L140.549 108.165L140.155 107.857ZM140.54 107.365L140.923 107.043L140.526 106.571L140.146 107.056L140.54 107.365ZM140.914 107.809L140.531 108.131L140.531 108.131L140.914 107.809ZM142.146 109.276L142.459 109.665L142.858 109.345L142.529 108.954L142.146 109.276ZM142.145 109.276L141.832 108.886L141.433 109.207L141.762 109.598L142.145 109.276ZM171.116 122.366L171.058 122.863L171.099 122.868L171.14 122.866L171.116 122.366ZM201.179 106.134L201.494 106.522V106.522L201.179 106.134ZM247.362 68.8025L247.658 69.2058C279.9 45.5736 307.443 45.0263 328.988 52.3757L329.149 51.9025L329.311 51.4293C307.447 43.9713 279.565 44.5796 247.066 68.3993L247.362 68.8025ZM329.149 51.9025L328.988 52.3757C350.538 59.727 366.113 74.985 374.421 83.0076L374.768 82.6479L375.116 82.2883C366.817 74.2748 351.098 58.8613 329.311 51.4293L329.149 51.9025ZM374.768 82.6479L374.421 83.0073L374.714 83.2909L375.061 82.9316L375.409 82.5722L375.116 82.2886L374.768 82.6479ZM375.061 82.9316L374.647 82.6511L374.4 83.0159L374.814 83.2964L375.228 83.5769L375.475 83.2121L375.061 82.9316ZM374.814 83.2964L374.399 83.0174L374.133 83.4136L374.548 83.6926L374.963 83.9716L375.229 83.5755L374.814 83.2964ZM374.548 83.6926L374.235 83.3026L374.234 83.3035L374.547 83.6935L374.859 84.0835L374.861 84.0826L374.548 83.6926ZM374.547 83.6935L374.132 83.4137L373.866 83.8079L374.28 84.0877L374.695 84.3675L374.961 83.9733L374.547 83.6935ZM374.28 84.0877L373.866 83.8074L373.528 84.3076L373.942 84.588L374.356 84.8683L374.694 84.3681L374.28 84.0877ZM373.942 84.588L374.284 84.2241L373.878 83.8406L373.535 84.2044L373.192 84.5683L373.599 84.9518L373.942 84.588ZM373.535 84.2044L373.877 83.8398L373.139 83.1479L372.797 83.5125L372.455 83.8772L373.193 84.5691L373.535 84.2044ZM372.797 83.5125L373.294 83.567L373.294 83.566L372.797 83.5116L372.3 83.4571L372.3 83.458L372.797 83.5125ZM372.797 83.5116L373.135 83.1426C357.215 68.5818 315.87 61.0662 254.401 106.119L254.697 106.523L254.993 106.926C316.304 61.9879 357.064 69.7996 372.46 83.8805L372.797 83.5116ZM254.697 106.523L254.401 106.119C214.652 135.254 188.302 140.001 170.438 137.921L170.38 138.418L170.322 138.915C188.518 141.033 215.117 136.153 254.993 106.926L254.697 106.523ZM170.38 138.418L170.438 137.921C161.475 136.878 155.448 131.528 150.863 125.488L150.464 125.79L150.066 126.092C154.731 132.237 160.975 137.826 170.322 138.915L170.38 138.418ZM150.464 125.79L150.863 125.488C148.57 122.467 146.638 119.275 144.881 116.363L144.453 116.621L144.025 116.88C145.779 119.787 147.736 123.023 150.066 126.092L150.464 125.79ZM144.453 116.621L144.881 116.363C143.125 113.453 141.542 110.82 139.948 108.923L139.566 109.245L139.183 109.567C140.715 111.39 142.254 113.944 144.025 116.88L144.453 116.621ZM139.566 109.245L139.948 108.924L139.69 108.616L139.307 108.938L138.925 109.259L139.183 109.567L139.566 109.245ZM139.307 108.938L139.701 109.246L139.967 108.907L139.574 108.599L139.18 108.29L138.914 108.629L139.307 108.938ZM139.574 108.599L139.967 108.907L140.548 108.165L140.155 107.857L139.761 107.548L139.18 108.29L139.574 108.599ZM140.155 107.857L140.549 108.165L140.934 107.673L140.54 107.365L140.146 107.056L139.761 107.549L140.155 107.857ZM140.54 107.365L140.157 107.686L140.531 108.131L140.914 107.809L141.296 107.488L140.923 107.043L140.54 107.365ZM140.914 107.809L140.531 108.131L141.763 109.597L142.146 109.276L142.529 108.954L141.296 107.488L140.914 107.809ZM142.146 109.276L141.833 108.886L141.832 108.886L142.145 109.276L142.458 109.666L142.459 109.665L142.146 109.276ZM142.145 109.276L141.762 109.598C144.9 113.326 148.385 116.202 153.021 118.366C157.649 120.527 163.401 121.969 171.058 122.863L171.116 122.366L171.174 121.87C163.577 120.983 157.94 119.559 153.444 117.46C148.957 115.365 145.584 112.586 142.527 108.954L142.145 109.276ZM171.116 122.366L171.14 122.866C175.72 122.642 180.329 120.973 185.273 118.16C190.215 115.349 195.52 111.379 201.494 106.522L201.179 106.134L200.863 105.746C194.899 110.595 189.646 114.522 184.779 117.291C179.913 120.059 175.459 121.653 171.091 121.867L171.116 122.366ZM201.179 106.134L201.494 106.522C213.432 96.8166 228.002 83.6124 247.658 69.2058L247.362 68.8025L247.066 68.3993C227.387 82.8236 212.749 96.0828 200.863 105.746L201.179 106.134Z" fill="black"/>
</g>
<use xlink:href="#Repeat%20group%201_inner" transform="translate(351.456 -94.1725) rotate(60)"/>
<use xlink:href="#Repeat%20group%201_inner" transform="translate(608.74 163.112) rotate(120)"/>
<use xlink:href="#Repeat%20group%201_inner" transform="translate(514.568 514.568) rotate(-180)"/>
<use xlink:href="#Repeat%20group%201_inner" transform="translate(163.111 608.74) rotate(-120)"/>
<use xlink:href="#Repeat%20group%201_inner" transform="translate(-94.1725 351.457) rotate(-60)"/>
<defs>
<linearGradient id="paint0_linear_0_1" x1="132.62" y1="120.075" x2="237.36" y2="124.554" gradientUnits="userSpaceOnUse">
<stop offset="0.139408" stop-color="#18C5E4"/>
<stop offset="0.490384" stop-color="#1D7BF0"/>
<stop offset="0.697124" stop-color="#0616A0"/>
<stop offset="1" stop-color="#722DF5"/>
</linearGradient>
</defs>
</svg>
